<?xml version="1.0" standalone="no"?>
<!DOCTYPE svg PUBLIC "-//W3C//DTD SVG 20010904//EN"
 "http://www.w3.org/TR/2001/REC-SVG-20010904/DTD/svg10.dtd">
<svg version="1.0" xmlns="http://www.w3.org/2000/svg"
 width="471.000000pt" height="452.000000pt" viewBox="0 0 471.000000 452.000000"
 preserveAspectRatio="xMidYMid meet">

<g transform="translate(0.000000,452.000000) scale(0.100000,-0.100000)"
fill="#000000" stroke="none">
<path d="M2165 4493 c-44 -7 -95 -14 -112 -14 -18 0 -33 -3 -33 -8 0 -4 -28
-11 -62 -15 -34 -3 -64 -9 -67 -14 -3 -4 -17 -8 -31 -9 -29 -1 -38 -4 -141
-36 -88 -28 -242 -88 -249 -97 -3 -3 -21 -12 -40 -20 -19 -8 -41 -20 -48 -27
-8 -7 -18 -11 -23 -8 -5 4 -9 2 -9 -3 0 -6 -12 -15 -27 -21 -16 -6 -50 -25
-78 -41 -27 -17 -57 -34 -65 -37 -8 -4 -17 -9 -20 -13 -3 -3 -52 -41 -110 -85
-58 -43 -110 -84 -116 -91 -6 -8 -14 -14 -18 -14 -7 0 -134 -129 -211 -215
-58 -65 -105 -130 -105 -145 0 -6 -7 -10 -16 -10 -8 0 -13 -4 -10 -9 3 -4 -9
-26 -27 -47 -37 -45 -83 -114 -97 -147 -5 -12 -21 -40 -35 -62 -14 -22 -28
-47 -31 -55 -4 -8 -20 -44 -37 -80 -16 -36 -37 -92 -47 -126 -9 -33 -25 -74
-34 -92 -9 -17 -17 -35 -17 -39 -1 -5 -5 -18 -10 -31 -5 -13 -9 -31 -9 -40 0
-9 -10 -48 -21 -87 -20 -69 -43 -218 -55 -345 -3 -35 -7 -67 -10 -71 -2 -4 0
-10 6 -14 6 -4 8 -11 5 -16 -7 -10 -7 -232 0 -294 2 -22 9 -69 15 -105 6 -36
12 -82 14 -102 2 -20 12 -63 21 -95 10 -32 19 -71 22 -88 6 -39 65 -199 75
-203 4 -2 8 -10 8 -19 0 -16 93 -209 138 -285 15 -25 46 -80 70 -121 24 -42
65 -105 92 -141 27 -36 55 -76 61 -88 19 -36 117 -148 193 -222 65 -63 219
-186 232 -186 3 0 17 -9 31 -20 14 -11 29 -17 34 -14 5 3 12 -2 15 -10 3 -9
10 -13 15 -10 10 6 65 -21 62 -30 -2 -3 -3 -12 -3 -18 0 -10 3 -9 9 1 7 11 19
8 62 -16 30 -16 88 -41 129 -57 41 -16 84 -32 95 -36 11 -4 34 -13 50 -20 17
-7 37 -14 45 -16 8 -1 46 -11 84 -23 37 -11 71 -20 75 -19 3 1 26 -4 51 -11
24 -7 59 -13 77 -13 18 0 33 -3 33 -7 0 -8 13 -10 83 -13 26 -1 47 -6 47 -11
0 -5 15 -6 33 -3 17 3 43 8 56 11 14 2 30 0 36 -5 12 -10 374 -7 440 3 49 9
175 33 235 46 45 10 265 70 330 90 31 10 92 39 159 76 26 14 37 65 14 65 -7 0
-46 -16 -87 -35 -41 -19 -81 -35 -89 -35 -7 0 -17 -4 -23 -9 -8 -7 -124 -48
-229 -81 -17 -5 -66 -16 -110 -25 -44 -8 -111 -22 -150 -30 -52 -12 -126 -16
-285 -17 -250 -1 -390 4 -390 14 0 3 -24 9 -52 13 -106 14 -338 72 -392 99
-17 8 -58 24 -91 36 -33 11 -89 35 -125 53 -36 18 -73 31 -83 30 -10 -2 -16 1
-13 5 8 14 -10 33 -32 35 -12 1 -22 7 -22 14 0 7 -7 13 -15 13 -8 0 -23 8 -33
18 -10 10 -24 16 -30 14 -7 -2 -15 3 -18 12 -3 9 -10 16 -16 16 -5 0 -6 -6 -2
-13 5 -8 2 -8 -9 2 -20 16 -22 25 -4 16 6 -4 1 3 -12 15 -13 11 -30 19 -37 16
-7 -3 -16 0 -20 6 -5 7 -2 8 6 3 9 -5 11 -4 6 3 -4 7 -17 12 -29 13 -21 0 -21
1 -2 9 17 7 17 9 3 9 -10 1 -18 6 -18 13 0 6 -3 9 -6 5 -4 -3 -19 0 -35 9 -32
16 -39 30 -12 20 15 -5 14 -3 -2 9 -11 9 -25 13 -33 10 -7 -3 -10 0 -7 6 4 6
-11 27 -33 47 -22 20 -43 47 -47 60 -4 13 -14 22 -26 22 -11 0 -18 4 -15 9 3
4 -9 24 -27 43 -93 100 -294 430 -366 603 -19 44 -42 98 -52 120 -20 44 -63
219 -95 385 -21 109 -28 522 -10 610 3 14 7 45 10 70 3 25 8 56 11 70 3 14 10
45 15 70 13 64 35 148 55 206 9 27 19 58 21 69 9 35 10 39 26 76 9 20 19 45
22 57 29 91 150 300 240 412 37 47 81 103 99 125 92 116 394 390 480 434 15 8
27 18 27 23 0 4 7 8 15 8 8 0 15 3 15 8 0 4 15 15 33 26 77 45 309 156 326
156 6 0 19 4 29 9 55 29 118 52 155 56 23 2 58 10 77 18 19 9 53 18 75 22 22
4 65 11 95 16 162 27 498 34 650 14 153 -20 327 -60 416 -96 41 -16 81 -29 88
-29 25 0 344 -159 381 -190 8 -7 28 -20 44 -29 16 -9 43 -27 61 -41 218 -171
313 -259 425 -390 76 -90 205 -272 205 -290 0 -5 5 -10 10 -10 6 0 10 -6 10
-14 0 -8 16 -37 35 -66 19 -29 35 -56 35 -61 0 -5 16 -44 36 -86 20 -41 37
-81 38 -87 4 -19 18 -60 31 -91 22 -49 71 -229 81 -293 3 -20 8 -46 11 -57 4
-11 7 -31 9 -45 1 -14 5 -38 9 -55 14 -63 9 -399 -7 -515 -31 -214 -79 -395
-141 -534 -134 -299 -261 -484 -478 -698 -103 -101 -310 -272 -325 -268 -4 1
-10 -3 -13 -9 -4 -6 -34 -28 -68 -50 -48 -31 -64 -48 -71 -73 -15 -56 6 -53
128 23 8 5 30 17 48 26 17 9 32 20 32 25 0 4 7 8 15 8 8 0 37 22 64 50 27 27
55 50 61 50 19 0 278 252 348 339 20 25 45 53 54 62 10 9 18 21 18 26 0 6 9
18 20 28 11 10 17 21 15 25 -3 5 -2 10 2 12 11 4 46 55 72 103 12 22 31 56 42
75 12 19 22 40 23 45 1 6 19 44 40 85 22 41 45 98 52 125 6 28 21 77 32 110
12 33 26 87 33 120 7 33 16 67 21 77 4 9 10 38 13 65 3 26 9 57 12 68 7 23 8
28 23 159 21 186 -1 522 -46 686 -8 30 -26 95 -39 143 -13 48 -32 103 -43 121
-11 19 -23 48 -27 66 -11 50 -131 284 -198 385 -61 93 -70 104 -159 215 -84
105 -348 360 -373 360 -3 0 -11 4 -18 10 -68 57 -114 89 -154 110 -26 14 -63
34 -80 46 -88 59 -367 181 -453 199 -19 4 -39 10 -45 13 -5 4 -15 7 -21 8 -6
1 -36 9 -65 17 -46 13 -122 26 -319 52 -59 8 -364 7 -384 -1 -14 -5 -17 -4
-12 4 4 7 4 12 -1 11 -4 -1 -44 -8 -88 -16z"/>
<path d="M2229 4366 c-2 -2 -31 -7 -64 -10 -89 -9 -221 -33 -295 -55 -36 -10
-83 -23 -105 -28 -49 -13 -149 -55 -153 -66 -2 -4 -8 -5 -13 -1 -12 7 -217
-93 -288 -140 -29 -20 -57 -36 -62 -36 -9 0 -14 -4 -99 -75 -30 -25 -65 -48
-77 -51 -13 -4 -23 -10 -23 -15 0 -4 -11 -18 -25 -31 -13 -13 -30 -29 -37 -35
-7 -7 -19 -18 -27 -25 -58 -55 -121 -124 -121 -132 0 -6 -11 -18 -24 -26 -14
-8 -37 -31 -53 -52 -15 -20 -53 -69 -84 -110 -31 -40 -70 -99 -86 -130 -17
-32 -32 -56 -35 -53 -2 2 -17 -20 -32 -50 -15 -30 -32 -57 -37 -60 -5 -4 -9
-15 -9 -26 0 -11 -7 -27 -15 -35 -8 -9 -15 -24 -15 -35 0 -11 -6 -30 -14 -42
-8 -12 -17 -38 -21 -57 -4 -19 -15 -53 -25 -75 -10 -22 -25 -78 -34 -123 -9
-46 -18 -87 -20 -91 -6 -9 -16 -80 -23 -161 -3 -36 -9 -70 -14 -76 -24 -30
-31 -395 -10 -539 7 -49 23 -126 36 -170 13 -44 29 -105 35 -135 7 -30 25 -82
40 -115 15 -33 31 -71 35 -85 13 -41 106 -221 144 -279 20 -29 41 -61 46 -70
6 -9 13 -18 16 -21 4 -3 16 -25 28 -50 41 -87 219 -310 248 -310 7 0 13 -7 13
-16 0 -31 155 -161 309 -259 9 -5 18 -12 21 -15 7 -7 70 -31 98 -37 12 -3 22
-9 22 -13 0 -4 18 -13 40 -20 22 -7 45 -19 51 -27 6 -7 20 -13 30 -13 10 0 20
-4 23 -9 4 -5 -4 -7 -16 -4 -13 3 -20 2 -15 -2 4 -5 30 -10 57 -11 28 -1 56
-6 63 -12 7 -5 29 -12 49 -15 20 -3 52 -12 70 -21 42 -19 138 -43 253 -62 11
-2 36 -6 55 -10 57 -10 106 -13 280 -18 181 -4 289 4 475 34 93 16 89 15 101
22 6 4 31 10 55 14 24 4 49 10 54 14 6 4 24 10 40 13 17 2 55 15 85 27 30 12
75 28 99 36 52 16 81 40 81 65 0 22 -22 17 -125 -31 -76 -35 -148 -63 -170
-65 -5 0 -35 -9 -65 -19 -30 -10 -86 -25 -125 -33 -38 -7 -95 -19 -125 -25
-33 -7 -160 -12 -320 -12 -259 0 -273 1 -480 38 -35 7 -242 73 -320 102 -71
28 -89 36 -170 79 -30 16 -63 30 -72 32 -10 1 -26 11 -37 22 -10 10 -33 22
-51 26 -17 4 -34 13 -37 21 -3 8 -9 12 -13 9 -4 -3 -11 2 -14 11 -3 8 -10 13
-14 10 -5 -3 -14 6 -21 21 -9 19 -15 23 -23 15 -8 -8 -17 -5 -34 13 -13 14
-28 25 -34 25 -6 0 -9 4 -6 8 5 9 -22 36 -42 43 -22 8 -109 99 -167 175 -33
44 -68 88 -77 98 -10 11 -18 25 -18 32 0 7 -4 14 -8 16 -5 2 -25 28 -45 58
-20 30 -41 60 -47 67 -5 7 -10 15 -10 18 0 4 -13 25 -28 48 -16 23 -35 58 -42
77 -8 19 -29 60 -48 90 -18 30 -35 66 -39 80 -3 14 -11 35 -19 46 -22 36 -85
235 -100 314 -47 258 -48 274 -47 512 1 175 23 338 67 502 23 83 82 260 95
282 6 11 27 55 47 99 20 44 46 94 58 110 12 17 35 53 51 80 30 53 170 238 202
267 10 9 34 35 53 57 19 23 76 76 125 118 50 42 98 85 108 95 10 10 21 18 26
18 5 0 19 10 32 23 34 33 125 97 137 97 6 0 17 6 24 13 25 25 234 137 267 143
8 2 28 10 45 18 17 8 72 27 121 42 50 14 119 34 155 45 71 21 188 39 290 45
36 2 67 4 70 4 16 3 329 -1 345 -4 11 -2 52 -7 90 -11 225 -23 550 -138 787
-279 75 -45 238 -167 238 -178 0 -5 8 -12 18 -15 41 -16 175 -148 287 -284 72
-88 94 -118 97 -130 2 -8 11 -20 21 -27 9 -7 17 -18 17 -24 0 -6 11 -25 24
-43 23 -29 43 -68 119 -224 15 -30 24 -58 21 -62 -3 -5 -1 -9 4 -9 20 0 129
-342 120 -377 -1 -5 3 -26 9 -48 53 -188 52 -466 -2 -760 -20 -110 -76 -297
-95 -320 -6 -7 -8 -19 -5 -26 2 -8 -13 -45 -35 -84 -22 -38 -57 -106 -78 -150
-21 -44 -46 -86 -55 -94 -9 -7 -17 -17 -17 -22 0 -5 -34 -53 -75 -108 -65 -87
-194 -223 -339 -359 -27 -25 -43 -48 -40 -57 6 -14 34 -10 34 6 0 5 8 9 18 9
9 0 26 14 37 30 11 16 23 30 27 30 8 0 38 23 70 52 10 10 23 18 28 18 6 0 10
4 10 9 0 11 25 41 103 124 31 34 57 64 57 68 0 4 19 31 43 61 24 29 58 80 77
113 18 33 45 78 59 100 14 22 26 42 26 45 0 3 18 39 39 80 53 105 141 391 151
490 1 14 7 43 13 65 32 121 29 493 -5 670 -28 148 -74 316 -103 379 -11 25
-20 50 -20 56 0 5 -4 18 -10 28 -5 9 -31 64 -59 122 -27 58 -63 122 -80 144
-17 21 -31 45 -31 52 0 8 -4 14 -9 14 -5 0 -14 13 -20 28 -10 24 -25 44 -71
99 -5 7 -10 15 -10 18 0 4 -6 12 -12 19 -7 7 -26 30 -43 51 -53 67 -185 195
-306 299 -37 31 -237 163 -281 185 -15 8 -37 22 -47 33 -11 10 -25 18 -31 18
-6 0 -42 16 -81 35 -39 19 -79 35 -90 35 -10 0 -21 5 -24 10 -3 6 -16 10 -29
10 -12 0 -26 4 -31 9 -19 19 -256 80 -400 103 -66 11 -507 23 -516 14z"/>
<path d="M2750 4226 c0 -12 9 -16 35 -16 19 0 35 5 35 11 0 6 -9 8 -20 4 -12
-4 -27 -1 -35 5 -12 10 -15 9 -15 -4z"/>
<path d="M2376 4214 c-10 -25 -7 -137 4 -154 10 -15 11 -14 15 28 6 55 57 57
65 3 3 -19 10 -36 16 -38 15 -5 19 153 4 162 -6 4 -10 -8 -10 -29 0 -34 -2
-36 -35 -36 -33 0 -35 2 -35 34 0 38 -14 55 -24 30z"/>
<path d="M2307 4214 c-4 -4 -7 -20 -7 -35 0 -33 -13 -43 -46 -35 -19 5 -24 12
-22 33 2 15 -3 28 -10 31 -11 3 -13 -12 -8 -79 3 -45 10 -87 16 -93 7 -7 10
-4 11 10 4 71 3 69 34 69 27 0 30 -4 33 -32 4 -36 17 -44 26 -15 7 22 -17 155
-27 146z"/>
<path d="M2561 4203 c-15 -12 -23 -34 -27 -69 -9 -70 6 -94 55 -94 43 0 57 12
71 61 24 82 -42 149 -99 102z m67 -25 c7 -7 12 -28 12 -48 0 -73 -71 -94 -84
-26 -12 64 34 112 72 74z"/>
<path d="M2074 4131 c9 -99 14 -111 45 -111 38 0 71 11 71 22 0 6 -14 8 -32 4
-18 -3 -39 -2 -47 3 -22 14 -4 49 29 56 43 9 37 25 -7 22 -34 -2 -38 0 -38 23
0 22 5 26 40 30 51 6 31 20 -25 18 l-43 -1 7 -66z"/>
<path d="M2717 4190 c-8 -25 -24 -165 -20 -169 6 -7 62 51 69 71 11 35 29 13
26 -30 -4 -49 13 -57 21 -9 14 80 19 127 12 127 -3 0 -23 -18 -44 -40 -20 -22
-41 -40 -45 -40 -5 0 -6 17 -3 39 5 40 -8 80 -16 51z"/>
<path d="M1997 4134 c6 -45 6 -46 -22 -42 -23 2 -31 10 -37 36 -11 42 -28 41
-28 -1 0 -44 27 -68 70 -65 30 3 34 0 42 -32 8 -29 11 -32 19 -17 6 11 6 24
-1 36 -5 11 -12 36 -15 56 -6 50 -15 75 -25 75 -6 0 -7 -20 -3 -46z"/>
<path d="M2970 4143 c-8 -3 -26 -21 -39 -41 -31 -47 -31 -100 -1 -124 30 -25
54 -23 86 7 37 35 46 115 16 141 -22 19 -37 23 -62 17z m50 -38 c9 -11 10 -27
4 -57 -7 -33 -15 -45 -36 -52 -54 -19 -75 31 -38 92 21 34 50 41 70 17z"/>
<path d="M1832 4100 c-6 -22 -12 -49 -12 -60 0 -11 -7 -20 -15 -20 -9 0 -15 9
-15 25 0 35 -1 39 -19 52 -28 22 -29 14 -2 -67 19 -59 30 -80 44 -80 12 0 17
8 17 29 0 39 18 87 29 75 5 -5 14 -26 21 -46 11 -38 30 -52 30 -23 0 13 -20
65 -41 107 -5 10 -9 25 -9 33 0 29 -15 15 -28 -25z"/>
<path d="M3094 4099 c-3 -6 2 -16 12 -24 20 -14 18 -26 -23 -132 -3 -7 -1 -13
4 -13 8 0 19 22 53 107 6 15 15 20 29 16 32 -8 25 16 -6 27 -16 6 -36 14 -45
20 -11 6 -19 6 -24 -1z"/>
<path d="M1680 4071 c0 -11 4 -31 9 -44 9 -22 7 -26 -17 -32 -26 -6 -30 -3
-58 42 -7 10 -14 15 -18 12 -8 -8 54 -159 65 -159 12 0 11 13 -1 46 -12 31
-13 30 22 39 23 6 29 2 43 -24 17 -34 35 -41 35 -13 0 22 -55 138 -69 147 -6
3 -11 -2 -11 -14z"/>
<path d="M3214 3989 c-16 -32 -32 -59 -36 -59 -5 0 -8 -9 -8 -19 0 -40 79 -68
108 -39 7 7 12 24 12 39 0 15 7 32 15 39 24 20 14 51 -26 76 l-36 22 -29 -59z
m67 11 c24 -13 24 -26 0 -39 -24 -14 -55 8 -45 32 7 20 17 21 45 7z m-30 -69
c22 -18 23 -21 8 -36 -12 -13 -21 -14 -43 -5 -15 5 -25 13 -23 17 2 5 7 16 10
26 8 22 19 22 48 -2z"/>
<path d="M1494 3950 c13 -85 28 -140 37 -140 5 0 9 11 9 25 0 28 37 50 55 34
12 -12 38 -11 33 1 -7 20 -111 120 -126 120 -11 0 -13 -8 -8 -40z m60 -33 c12
-19 3 -32 -19 -24 -17 7 -21 51 -3 45 6 -2 16 -12 22 -21z"/>
<path d="M3373 3963 c-7 -2 -13 -9 -13 -13 0 -5 -13 -32 -30 -60 -16 -28 -30
-54 -30 -58 0 -11 65 -52 83 -52 29 0 19 19 -18 34 -36 16 -46 42 -19 53 8 3
27 0 41 -6 36 -17 43 -3 10 21 -15 11 -27 28 -27 39 0 23 3 23 46 3 39 -19 60
-10 29 11 -11 8 -25 19 -32 25 -13 11 -21 11 -40 3z"/>
<path d="M2358 3928 c-1 -18 -1 -49 0 -69 2 -23 -5 -42 -18 -57 -25 -27 -26
-42 -1 -42 30 0 46 29 48 89 1 31 2 62 2 69 1 6 12 12 26 12 14 0 25 -6 26
-12 1 -7 2 -38 4 -68 3 -86 4 -90 20 -90 12 0 15 18 15 100 l0 100 -60 0 -60
0 -2 -32z"/>
<path d="M2560 3958 c-14 -95 -27 -204 -25 -206 2 -2 22 -6 44 -9 45 -6 105
13 97 32 -2 6 0 18 4 25 13 21 -18 60 -49 60 -44 0 -54 13 -46 59 6 34 4 41
-9 41 -9 0 -16 -1 -16 -2z m71 -128 c10 -6 19 -20 19 -30 0 -17 -7 -20 -45
-20 -47 0 -48 1 -39 38 7 24 33 29 65 12z"/>
<path d="M2159 3939 c-14 -3 -23 -12 -21 -20 2 -7 8 -51 15 -96 l11 -83 65 6
c74 8 76 8 66 24 -5 8 -21 10 -47 6 -44 -7 -68 5 -68 35 0 15 7 19 31 19 36 0
72 17 64 31 -4 5 -24 6 -47 3 -29 -5 -42 -3 -49 7 -13 20 -11 39 4 39 26 0 87
21 87 31 0 9 -69 9 -111 -2z"/>
<path d="M1380 3923 c-19 -9 -37 -18 -39 -20 -2 -1 4 -14 13 -27 9 -14 16 -31
16 -38 0 -19 58 -83 67 -75 4 5 2 17 -5 28 -12 18 -10 24 12 44 32 30 35 79 7
95 -25 13 -29 13 -71 -7z m66 -35 c4 -6 -1 -17 -11 -25 -25 -17 -28 -17 -43 7
-10 16 -10 23 0 34 14 15 40 7 54 -16z"/>
<path d="M2020 3912 c-53 -15 -73 -29 -65 -43 3 -3 15 -4 28 -2 22 4 25 -1 41
-64 10 -37 19 -74 22 -80 5 -20 24 -15 24 6 0 23 -17 111 -25 133 -5 13 0 21
19 29 14 7 26 18 26 26 0 16 0 16 -70 -5z"/>
<path d="M2746 3913 c-6 -25 -18 -84 -22 -108 -1 -11 -5 -32 -9 -47 -6 -22 -4
-28 9 -28 9 0 18 12 22 28 11 51 12 52 46 46 45 -9 50 -15 37 -53 -9 -27 -9
-35 2 -42 11 -7 17 3 27 44 7 28 14 59 17 67 18 67 18 82 0 79 -12 -3 -20 -15
-22 -34 -3 -16 -6 -32 -9 -34 -8 -8 -79 14 -78 24 1 6 5 25 9 43 5 25 3 32 -9
32 -8 0 -17 -8 -20 -17z"/>
<path d="M3486 3903 c-3 -4 1 -14 10 -24 15 -16 14 -20 -9 -51 -51 -69 -61
-88 -44 -88 8 0 30 23 48 50 30 44 37 50 62 46 15 -3 27 -2 27 3 0 12 -86 71
-94 64z"/>
<path d="M1272 3850 c-34 -32 -28 -59 31 -133 21 -25 34 -34 41 -27 6 6 -3 28
-28 65 -38 54 -42 85 -11 85 8 0 15 7 15 15 0 21 -22 19 -48 -5z"/>
<path d="M1854 3859 c-7 -12 -8 -45 -5 -152 1 -42 5 -57 14 -54 6 2 13 10 13
18 1 8 2 19 3 26 0 6 15 15 32 18 24 6 34 3 41 -9 10 -17 33 -21 42 -7 3 5 -7
24 -22 44 -15 19 -36 47 -47 62 -28 38 -28 39 -47 53 -12 10 -18 10 -24 1z
m66 -108 c0 -6 -11 -11 -25 -11 -21 0 -25 5 -25 28 0 16 3 32 6 35 8 7 44 -36
44 -52z"/>
<path d="M2934 3783 c-16 -49 -29 -92 -29 -98 0 -5 22 -15 48 -22 56 -14 84
-3 93 34 9 33 -1 51 -41 75 -26 15 -34 25 -29 37 15 37 16 61 2 61 -9 0 -25
-31 -44 -87z m83 -47 c14 -14 -1 -56 -21 -56 -8 0 -26 4 -40 9 -23 9 -24 12
-13 40 9 26 15 29 37 24 14 -3 30 -11 37 -17z"/>
<path d="M3107 3803 c-4 -3 -7 -14 -7 -23 0 -9 -8 -34 -19 -56 -28 -59 -36
-104 -18 -104 10 0 24 29 42 83 15 45 30 88 32 95 5 12 -19 17 -30 5z"/>
<path d="M3603 3798 c-36 -9 -70 -51 -79 -96 -5 -24 -1 -33 21 -51 32 -25 58
-27 75 -6 14 16 6 21 -40 27 -36 4 -38 45 -4 81 34 37 66 33 79 -10 5 -18 13
-33 17 -33 11 0 10 48 -2 69 -13 25 -29 29 -67 19z"/>
<path d="M1643 3774 c-18 -8 -33 -16 -33 -18 0 -2 14 -34 30 -71 17 -37 30
-73 30 -80 0 -7 6 -18 14 -24 11 -9 25 -6 65 16 27 15 52 35 54 44 7 25 -22
79 -38 73 -10 -4 -15 6 -17 33 -3 36 -5 38 -38 40 -19 1 -50 -5 -67 -13z m77
-33 c0 -41 -52 -53 -67 -15 -7 19 12 34 45 34 15 0 22 -6 22 -19z m48 -75 c4
-19 -32 -55 -54 -56 -18 0 -27 50 -13 66 17 21 63 14 67 -10z"/>
<path d="M3262 3773 c4 -22 44 -42 69 -36 29 8 17 29 -14 25 -18 -2 -29 2 -33
12 -8 22 -26 20 -22 -1z"/>
<path d="M1170 3762 c-41 -21 -52 -49 -35 -89 17 -39 78 -87 102 -79 25 8 50
55 45 88 -2 14 -14 37 -27 50 -47 47 -50 48 -85 30z m61 -43 c18 -19 29 -42
29 -59 0 -57 -66 -43 -103 22 -13 23 -13 29 0 47 20 29 40 26 74 -10z"/>
<path d="M3192 3728 c-11 -18 -28 -51 -38 -73 -10 -22 -22 -43 -27 -46 -6 -4
-7 -14 -4 -24 8 -18 40 -13 68 11 8 8 20 14 26 14 6 0 16 7 23 15 14 17 30 20
30 5 0 -6 -12 -29 -26 -51 -19 -31 -23 -44 -14 -53 9 -8 18 -4 36 19 13 17 24
35 24 40 0 6 11 27 25 47 25 36 33 78 16 78 -12 0 -102 -50 -124 -68 -29 -25
-28 -9 3 49 34 62 35 69 16 69 -8 0 -23 -15 -34 -32z"/>
<path d="M3720 3720 c0 -6 4 -20 10 -30 8 -15 1 -27 -35 -66 -42 -44 -54 -64
-39 -64 4 0 29 23 56 50 42 42 52 48 69 40 35 -19 21 13 -21 48 -22 18 -40 28
-40 22z"/>
<path d="M1478 3678 c-18 -6 -31 -21 -37 -41 -12 -36 -11 -77 1 -77 4 0 8 -6
8 -13 0 -18 59 -67 82 -67 27 0 74 26 82 45 24 64 -30 155 -94 160 -9 1 -28
-3 -42 -7z m81 -50 c42 -43 43 -91 3 -112 -26 -13 -30 -12 -60 12 -22 18 -34
38 -37 61 -9 74 40 94 94 39z"/>
<path d="M2320 3678 c-97 -9 -252 -38 -265 -49 -5 -5 -19 -9 -30 -9 -53 0
-355 -129 -355 -151 0 -5 -6 -9 -12 -9 -30 0 -180 -120 -276 -220 -95 -98
-252 -333 -252 -375 0 -9 -6 -18 -13 -21 -7 -2 -14 -14 -15 -27 -1 -12 -13
-46 -27 -74 -14 -29 -25 -59 -25 -65 0 -7 -9 -38 -19 -68 -23 -70 -41 -173
-45 -272 l-4 -78 246 5 c136 2 418 7 627 10 509 8 763 13 925 19 74 3 317 8
540 12 223 3 436 7 475 8 l69 1 -3 54 c-1 29 -5 63 -7 75 -3 11 -7 37 -9 56
-3 19 -8 46 -11 60 -3 14 -8 36 -11 50 -2 13 -8 29 -12 35 -4 5 -13 30 -20 55
-26 92 -136 316 -171 350 -3 3 -23 31 -44 62 -33 49 -163 186 -238 253 -85 75
-310 198 -423 232 -27 8 -54 18 -60 21 -5 3 -16 7 -25 8 -22 2 -60 10 -105 22
-120 32 -270 43 -405 30z m215 -52 c215 -19 473 -101 614 -193 161 -105 278
-217 394 -375 42 -59 77 -110 77 -115 0 -5 10 -24 23 -43 22 -32 69 -143 112
-263 9 -26 15 -57 12 -68 -3 -10 -2 -19 2 -19 9 0 31 -114 31 -159 l0 -31 -92
-1 c-155 -1 -441 -7 -678 -14 -124 -3 -362 -8 -530 -10 -168 -3 -372 -6 -455
-9 -212 -6 -866 -21 -950 -21 -64 0 -70 2 -68 20 2 11 5 43 8 70 15 129 83
373 100 357 5 -4 5 -1 1 5 -7 12 81 192 109 223 8 9 15 22 15 28 0 7 8 20 18
30 9 9 24 29 33 42 56 87 348 340 391 340 9 0 18 6 21 13 10 27 203 110 337
146 117 31 361 64 405 54 6 -1 37 -4 70 -7z m218 -1313 c-7 -2 -21 -2 -30 0
-10 3 -4 5 12 5 17 0 24 -2 18 -5z m90 0 c-7 -2 -19 -2 -25 0 -7 3 -2 5 12 5
14 0 19 -2 13 -5z"/>
<path d="M976 3598 c-32 -46 -12 -94 54 -128 44 -23 81 -15 100 19 14 27 2 71
-19 71 -13 0 -17 -7 -13 -28 5 -40 -18 -58 -53 -40 -15 7 -34 25 -43 40 -13
22 -13 29 -3 42 8 9 24 16 37 16 17 0 22 4 18 15 -9 23 -60 19 -78 -7z"/>
<path d="M3777 3567 c-31 -29 -57 -56 -57 -61 0 -14 46 -53 69 -59 14 -3 26 2
36 16 18 26 13 32 -13 16 -17 -10 -25 -10 -48 6 l-28 18 24 19 c23 18 23 18
47 -4 19 -18 28 -20 50 -12 36 12 44 37 10 29 -14 -4 -35 -2 -47 5 -17 9 -19
14 -9 26 15 18 28 18 51 -3 10 -9 21 -14 24 -10 6 6 -36 67 -45 67 -3 -1 -32
-24 -64 -53z"/>
<path d="M3451 3578 c-12 -13 -42 -45 -67 -73 l-46 -49 47 -43 c41 -39 46 -47
40 -73 -8 -37 12 -40 43 -7 14 15 18 27 12 36 -6 11 5 31 38 70 26 31 51 59
57 63 6 5 5 12 -3 20 -11 11 -24 1 -72 -52 l-58 -65 -22 23 c-20 21 -21 27
-10 48 7 13 21 32 29 41 58 63 69 118 12 61z"/>
<path d="M1282 3527 c-24 -26 -31 -92 -9 -85 6 3 14 15 15 29 5 32 20 49 44
49 26 0 34 -27 14 -49 -15 -16 -15 -19 -2 -24 9 -4 18 -2 21 3 7 12 52 13 59
2 3 -4 -1 -19 -7 -33 -9 -18 -21 -24 -45 -25 -40 0 -52 -12 -30 -28 41 -30
118 15 118 69 0 25 -29 55 -52 55 -9 0 -21 14 -27 30 -8 25 -15 30 -44 30 -22
0 -41 -8 -55 -23z"/>
<path d="M3913 3477 c-6 -7 -30 -25 -52 -41 -34 -25 -39 -34 -34 -54 11 -44
63 -82 63 -47 0 8 -3 15 -8 15 -4 0 -13 9 -20 21 -11 18 -11 23 5 34 15 12 21
11 40 -7 30 -28 40 -17 17 17 -16 24 -16 28 -1 42 15 15 18 14 46 -16 37 -39
51 -24 15 18 -27 32 -51 39 -71 18z"/>
<path d="M852 3449 c-14 -5 -20 -13 -16 -21 5 -8 2 -9 -9 -5 -14 5 -16 1 -13
-26 7 -50 15 -65 51 -87 45 -28 89 -26 113 5 27 34 17 69 -31 110 -42 36 -56
40 -95 24z m73 -39 c37 -23 46 -39 38 -69 -8 -32 -62 -28 -96 7 -15 15 -27 36
-27 45 0 14 25 32 49 36 2 1 18 -8 36 -19z"/>
<path d="M3625 3439 c-5 -6 -38 -36 -72 -67 l-62 -57 44 -50 c35 -40 46 -48
56 -38 10 10 6 20 -19 46 -33 34 -33 34 -14 57 l19 24 31 -35 c27 -30 31 -32
38 -16 4 12 -1 26 -16 42 -23 24 -22 55 2 55 6 0 27 -14 45 -32 24 -24 36 -29
44 -21 9 9 0 23 -31 57 -46 49 -49 51 -65 35z"/>
<path d="M1159 3394 c-6 -8 -9 -17 -7 -21 1 -4 23 -45 47 -90 45 -87 67 -106
58 -50 -7 47 21 79 62 71 59 -12 32 15 -59 59 -72 34 -93 41 -101 31z m87 -58
c18 -14 18 -15 1 -33 -17 -17 -19 -17 -37 7 -11 14 -20 28 -20 33 0 12 35 8
56 -7z"/>
<path d="M4010 3370 c-14 -9 -44 -29 -67 -45 -46 -30 -57 -52 -20 -40 53 16
62 16 74 -4 12 -19 9 -22 -22 -38 -25 -13 -32 -22 -26 -32 7 -11 23 -5 75 30
36 24 66 49 66 56 0 10 -7 9 -26 -4 -26 -17 -27 -16 -51 12 l-25 28 31 16 c18
10 27 21 23 27 -5 8 -14 6 -32 -6z"/>
<path d="M743 3293 c-11 -10 -23 -28 -27 -40 -6 -19 3 -28 64 -69 77 -51 74
-51 105 8 22 39 19 67 -7 77 -13 5 -28 6 -35 4 -6 -3 -16 5 -23 16 -13 26 -50
27 -77 4z m55 -25 c15 -15 -3 -38 -29 -38 -24 0 -33 18 -19 35 15 18 32 19 48
3z m70 -38 c4 -24 -21 -52 -41 -44 -20 7 -22 35 -5 52 16 16 42 11 46 -8z"/>
<path d="M1037 3258 l-42 -40 35 -30 c90 -77 118 -98 129 -98 19 0 12 26 -15
49 l-25 22 25 30 c31 36 32 46 8 77 -30 39 -68 35 -115 -10z m90 -9 c9 -9 8
-19 -3 -40 -17 -33 -22 -35 -52 -13 -27 18 -28 32 -4 50 21 17 44 18 59 3z"/>
<path d="M3700 3260 c-29 -22 -61 -42 -72 -45 -20 -7 -25 -45 -5 -45 6 0 23 9
37 20 32 25 45 25 64 -2 23 -32 20 -43 -18 -63 -31 -17 -40 -45 -14 -45 10 0
95 56 116 77 8 7 23 18 34 24 14 8 17 14 9 22 -7 7 -20 5 -45 -8 l-34 -18 -25
29 -25 29 27 22 c14 13 29 23 34 23 4 0 7 5 7 10 0 21 -39 8 -90 -30z"/>
<path d="M4083 3228 c-13 -6 -23 -15 -23 -19 0 -4 -15 -13 -34 -19 -19 -6 -37
-17 -40 -25 -7 -19 7 -19 44 0 27 14 30 14 44 -6 19 -27 13 -41 -25 -58 -19
-8 -27 -17 -21 -23 6 -6 36 5 81 28 42 21 68 41 63 46 -5 5 -20 5 -35 -1 -22
-9 -28 -7 -37 9 -15 28 -13 35 15 50 47 25 17 42 -32 18z"/>
<path d="M657 3152 c-21 -49 -23 -58 -10 -61 9 -1 20 4 25 12 7 14 17 12 73
-14 74 -33 75 -34 75 -16 0 7 -27 26 -60 42 -52 25 -60 32 -60 56 0 48 -16 40
-43 -19z"/>
<path d="M3860 3131 c0 -6 5 -13 10 -16 22 -13 8 -41 -28 -57 -87 -41 -113
-60 -101 -74 9 -12 15 -11 38 4 14 10 48 29 75 42 l49 23 18 -24 c16 -22 18
-23 25 -5 4 10 2 21 -3 25 -6 3 -20 25 -32 49 -19 37 -51 58 -51 33z"/>
<path d="M928 3077 c-31 -58 -33 -67 -17 -67 6 0 41 -18 78 -40 37 -22 72 -40
77 -40 9 0 46 70 50 97 4 25 -27 53 -59 53 -25 0 -37 -7 -55 -34 -17 -24 -29
-32 -43 -29 -22 6 -24 19 -6 53 23 45 27 60 14 60 -7 0 -24 -24 -39 -53z m152
-32 c10 -12 10 -21 0 -45 -14 -34 -39 -39 -64 -12 -15 18 -15 21 5 45 23 30
41 34 59 12z"/>
<path d="M4145 3077 c-67 -22 -100 -91 -57 -123 57 -44 184 36 152 96 -14 26
-59 39 -95 27z m71 -31 c15 -12 17 -18 8 -33 -24 -40 -109 -58 -133 -29 -10
12 -6 21 16 45 31 34 76 41 109 17z"/>
<path d="M614 3050 c-28 -11 -34 -37 -18 -76 17 -41 54 -64 102 -64 31 0 43 5
56 25 27 41 15 94 -19 81 -14 -5 -15 -9 -5 -20 9 -11 9 -20 0 -37 -10 -18 -18
-20 -47 -16 -44 8 -63 23 -63 53 0 17 8 28 25 34 14 5 25 14 25 20 0 12 -27
12 -56 0z"/>
<path d="M3925 2955 c-28 -13 -67 -31 -87 -40 -40 -18 -51 -45 -20 -45 10 0
24 6 31 13 10 10 16 7 32 -13 11 -14 27 -33 34 -42 21 -25 52 -22 82 8 28 29
27 60 -4 112 l-19 30 -49 -23z m55 -67 c0 -38 -25 -46 -56 -18 -30 29 -30 32
3 52 34 20 53 8 53 -34z"/>
<path d="M855 2918 c-56 -49 -31 -127 50 -156 48 -18 88 -2 110 44 15 32 15
36 -1 63 -19 32 -80 71 -112 71 -12 0 -33 -10 -47 -22z m111 -43 c35 -33 36
-36 21 -57 -29 -44 -137 -14 -145 40 -4 23 31 52 65 52 12 0 38 -16 59 -35z"/>
<path d="M4235 2923 c-54 -10 -67 -15 -85 -33 -11 -11 -20 -31 -20 -45 0 -30
32 -65 60 -65 27 0 25 19 -4 29 -43 17 -41 52 4 76 43 22 79 19 89 -7 5 -14 5
-28 -2 -36 -5 -7 -7 -16 -3 -20 10 -9 36 27 36 48 0 29 -43 59 -75 53z"/>
<path d="M549 2911 c-3 -21 -4 -26 -12 -38 -23 -36 -16 -51 31 -67 116 -41
120 -40 143 16 23 59 6 76 -19 20 -15 -34 -20 -38 -39 -31 -20 7 -21 11 -11
39 5 17 7 34 3 38 -8 8 -35 -26 -35 -45 0 -7 -11 -13 -26 -13 -24 0 -26 3 -20
28 11 48 11 55 -1 59 -7 3 -14 0 -14 -6z"/>
<path d="M4312 2778 c5 -25 2 -27 -60 -39 -57 -12 -85 -30 -69 -45 3 -3 29 2
58 10 66 20 89 20 89 1 0 -8 5 -15 11 -15 17 0 2 81 -18 100 -14 13 -15 12
-11 -12z"/>
<path d="M507 2754 c-13 -14 64 -41 126 -44 4 0 7 -12 7 -26 0 -25 -2 -26 -32
-20 -45 10 -58 13 -90 21 -21 5 -28 4 -28 -8 0 -9 20 -18 60 -27 40 -8 64 -19
71 -32 7 -14 6 -20 -6 -24 -16 -7 -79 0 -124 12 -17 5 -22 3 -19 -6 2 -7 39
-21 82 -32 85 -22 96 -18 96 30 0 37 31 133 40 127 5 -3 11 -1 15 5 7 12 8 11
-68 15 -31 2 -72 6 -90 9 -19 3 -36 3 -40 0z"/>
<path d="M4327 2644 c-3 -4 -31 -8 -62 -10 -65 -4 -79 -10 -70 -33 4 -9 8 -24
9 -34 0 -10 13 -26 28 -34 24 -15 28 -15 51 0 19 12 25 24 23 48 -1 28 3 34
32 43 18 6 30 15 26 19 -9 9 -28 9 -37 1z m-47 -64 c0 -23 -4 -30 -20 -30 -21
0 -40 27 -33 48 3 6 16 12 29 12 20 0 24 -5 24 -30z"/>
<path d="M456 2503 c-13 -82 -15 -80 74 -88 44 -4 83 -5 87 -4 4 2 7 26 8 53
0 39 -4 50 -20 58 -26 12 -75 -6 -76 -27 -1 -8 -2 -21 -3 -27 -1 -17 -37 -23
-46 -7 -5 7 -6 27 -3 46 3 19 1 33 -4 33 -6 0 -13 -17 -17 -37z m132 -5 c19
-19 15 -68 -5 -68 -34 0 -46 16 -38 49 7 32 23 39 43 19z"/>
<path d="M4224 2491 c-12 -13 0 -21 31 -21 19 0 35 -4 35 -10 0 -5 -4 -10 -10
-10 -5 0 -20 -12 -34 -26 -20 -22 -22 -32 -15 -56 13 -46 36 -59 94 -54 53 6
85 31 85 68 0 24 -56 82 -70 73 -5 -3 -10 -2 -10 4 0 5 14 12 30 16 55 12 20
26 -57 23 -41 -2 -77 -5 -79 -7z m154 -94 c5 -27 -27 -57 -60 -57 -42 0 -68
17 -68 45 0 27 16 34 80 32 35 -2 46 -6 48 -20z"/>
<path d="M447 2362 c-22 -24 -22 -75 1 -95 29 -26 105 -32 142 -11 28 17 31
22 25 54 -9 50 -37 70 -100 70 -38 0 -56 -5 -68 -18z m131 -24 c31 -31 1 -68
-53 -68 -39 0 -65 18 -65 44 0 12 3 26 7 29 11 12 98 8 111 -5z"/>
<path d="M2933 2115 c-41 -42 -52 -61 -65 -115 -19 -82 -14 -176 14 -258 19
-55 26 -64 64 -83 53 -25 173 -28 208 -5 86 56 119 137 112 283 -4 92 -12 116
-56 167 -34 38 -62 49 -151 55 l-77 6 -49 -50z m201 -50 c16 -31 20 -64 24
-169 4 -130 3 -131 -25 -174 -27 -43 -29 -44 -72 -39 -55 6 -75 30 -92 109
-16 80 -7 228 18 271 21 35 75 59 107 47 11 -4 29 -24 40 -45z m-219 -265 c3
-5 1 -10 -4 -10 -6 0 -11 5 -11 10 0 6 2 10 4 10 3 0 8 -4 11 -10z m295 -12
c0 -4 -4 -8 -9 -8 -6 0 -12 4 -15 8 -3 5 1 9 9 9 8 0 15 -4 15 -9z"/>
<path d="M3340 2158 c0 -6 9 -21 19 -32 18 -19 20 -41 24 -230 4 -197 3 -209
-14 -213 -11 -3 -19 -12 -19 -19 0 -11 18 -14 79 -14 84 0 104 9 71 33 -18 13
-21 26 -22 98 0 46 -5 89 -9 95 -14 17 15 25 48 13 16 -5 34 -18 41 -29 19
-32 52 -123 52 -147 0 -12 5 -25 11 -28 6 -4 8 -13 5 -20 -3 -10 11 -13 58
-13 85 0 98 9 63 44 -15 15 -27 34 -27 43 0 9 -15 49 -34 88 -26 54 -43 76
-68 89 -18 9 -34 18 -36 19 -2 2 7 20 20 42 13 21 32 55 43 77 24 47 39 54 75
33 34 -21 40 -15 40 40 l0 43 -49 0 c-65 0 -75 -11 -123 -130 -27 -66 -43 -89
-69 -100 -15 -7 -32 -9 -38 -6 -5 4 -8 46 -7 97 2 74 5 93 19 100 9 6 17 16
17 23 0 11 -21 14 -85 15 -60 1 -85 -2 -85 -11z m320 -368 c0 -5 -10 -10 -22
-10 -19 0 -20 2 -8 10 19 13 30 13 30 0z"/>
<path d="M2524 2151 c-2 -2 -31 -3 -64 -2 l-61 2 3 -68 c3 -64 4 -68 27 -68
18 0 26 8 35 35 9 27 18 36 43 41 31 6 33 5 40 -30 4 -20 8 -114 8 -209 0
-154 -2 -175 -17 -186 -28 -20 -21 -36 15 -37 65 -1 152 3 160 8 5 3 -2 15
-16 27 -16 12 -28 35 -31 56 -4 27 -9 305 -6 366 1 41 85 9 94 -36 3 -16 13
-30 25 -33 27 -7 28 -4 27 72 l-1 64 -138 1 c-76 1 -140 -1 -143 -3z"/>
<path d="M1643 2114 c-83 -42 -115 -116 -114 -261 1 -124 34 -204 101 -238 30
-16 123 -20 180 -9 45 9 97 67 115 127 17 58 19 191 4 257 -29 128 -162 186
-286 124z m102 -27 c54 11 81 -61 89 -239 3 -74 -18 -170 -37 -168 -4 0 -17
-9 -29 -20 -12 -11 -29 -20 -38 -20 -27 0 -73 58 -86 108 -15 56 -12 235 4
275 13 30 65 81 70 68 1 -5 13 -6 27 -4z m73 4 c11 -7 11 -9 -1 -14 -16 -6
-27 0 -27 15 0 10 11 10 28 -1z m65 -38 c-7 -2 -19 -2 -25 0 -7 3 -2 5 12 5
14 0 19 -2 13 -5z"/>
<path d="M2108 2112 c-21 -15 -43 -39 -50 -54 -7 -16 -15 -28 -18 -28 -10 0
-15 -64 -14 -182 1 -112 2 -119 29 -158 42 -61 74 -73 180 -71 128 2 125 1
121 74 -2 55 -5 62 -24 65 -16 3 -22 -2 -22 -17 0 -27 -39 -69 -70 -76 -40 -9
-86 37 -100 100 -18 81 -14 218 8 271 30 71 135 73 157 4 3 -11 15 -20 25 -20
16 0 18 7 15 43 -1 23 -3 49 -4 58 -1 12 -12 16 -46 17 -28 0 -45 -4 -45 -11
0 -8 -3 -9 -8 -1 -4 5 -27 11 -52 11 -34 1 -54 -5 -82 -25z"/>
<path d="M4320 2110 c0 -31 -17 -39 -37 -19 -11 11 -33 5 -33 -10 0 -4 12 -13
27 -20 l28 -13 -28 -14 c-30 -16 -37 -39 -9 -31 43 12 47 11 50 -10 5 -34 22
-28 22 7 0 30 0 30 24 15 14 -9 27 -12 30 -7 6 10 -9 26 -34 35 -10 4 -5 9 18
18 30 13 40 38 11 30 -8 -2 -22 -6 -31 -8 -14 -4 -18 1 -18 26 0 17 -4 31 -10
31 -5 0 -10 -13 -10 -30z"/>
<path d="M1177 2123 c-5 -4 -23 -6 -42 -5 -41 4 -55 -15 -27 -37 12 -9 21 -25
21 -36 0 -11 2 -92 6 -180 6 -166 -4 -251 -30 -241 -8 3 -11 -2 -8 -15 5 -17
15 -19 99 -19 56 0 94 4 94 10 0 6 -4 10 -8 10 -22 0 -42 62 -42 129 l0 71 40
0 c21 0 61 5 89 11 45 9 51 14 70 55 40 84 21 202 -37 233 -10 5 -62 9 -115 8
-53 -1 -98 2 -100 6 -1 5 -6 5 -10 0z m166 -82 c24 -42 21 -97 -8 -147 -23
-40 -27 -42 -55 -34 -17 5 -33 10 -37 12 -7 4 -12 144 -5 176 3 18 11 22 46
22 35 0 44 -4 59 -29z"/>
<path d="M522 2039 c5 -32 1 -33 -44 -14 -27 11 -23 -19 5 -38 17 -12 18 -16
6 -16 -9 -1 -22 -7 -28 -15 -15 -18 16 -53 32 -37 16 16 24 13 30 -10 7 -25
29 -21 33 5 4 26 10 29 33 15 30 -19 40 0 12 23 -21 16 -22 21 -10 29 7 5 17
9 22 9 4 0 7 9 7 20 0 21 -33 29 -45 10 -10 -16 -27 0 -20 18 5 15 -10 32 -29
32 -4 0 -6 -14 -4 -31z"/>
<path d="M3821 1996 c-7 -9 -8 -17 -3 -20 6 -3 24 -34 42 -68 31 -60 32 -62
16 -95 -9 -18 -21 -33 -26 -33 -6 0 -8 -5 -4 -11 3 -6 2 -14 -5 -18 -6 -4 -14
-21 -17 -39 -6 -28 -4 -32 15 -32 12 0 28 12 38 28 10 15 34 48 55 73 22 26
38 56 38 70 -1 15 -23 48 -63 92 -34 37 -65 67 -69 67 -3 0 -11 -6 -17 -14z"/>
<path d="M3975 2000 c-6 -9 30 -91 57 -130 8 -12 2 -33 -27 -89 -36 -72 -39
-101 -12 -101 21 0 127 148 127 176 0 15 -14 40 -36 62 -20 20 -43 49 -52 64
-16 28 -45 37 -57 18z"/>
<path d="M990 1948 c0 -12 -3 -19 -6 -15 -8 8 -51 -43 -63 -77 -6 -14 -17 -26
-26 -26 -11 0 -15 -10 -15 -36 0 -28 12 -50 57 -107 68 -85 73 -89 90 -75 18
14 9 41 -33 106 -39 60 -39 72 7 139 31 44 37 81 17 101 -18 18 -28 15 -28
-10z"/>
<path d="M833 1943 c-4 -10 -15 -27 -25 -37 -10 -11 -18 -24 -18 -30 0 -6 -17
-27 -37 -48 -46 -47 -43 -59 46 -158 59 -65 66 -70 78 -54 10 14 9 21 -6 43
-10 14 -29 47 -41 73 l-22 47 38 71 c28 54 35 76 28 88 -15 24 -33 26 -41 5z"/>
<path d="M4226 1788 c-34 -49 -14 -88 45 -88 41 0 63 19 53 45 -5 13 -2 16 12
13 20 -3 33 -48 15 -48 -6 0 -11 -7 -11 -15 0 -18 12 -19 28 -3 13 13 16 57 4
75 -10 17 -76 43 -106 43 -14 0 -31 -9 -40 -22z m66 -15 c24 -21 23 -40 -2
-48 -43 -14 -84 22 -59 51 15 19 38 18 61 -3z"/>
<path d="M587 1739 c-9 -10 -23 -19 -31 -19 -8 0 -22 -3 -32 -7 -12 -4 -15 -3
-10 5 11 19 1 14 -27 -12 -33 -31 -27 -50 20 -62 20 -5 39 -15 41 -23 3 -10
-1 -12 -16 -9 -13 4 -20 1 -19 -6 1 -6 -3 -10 -9 -9 -7 1 -10 -6 -7 -17 7 -25
3 -25 90 2 49 16 73 28 73 39 0 23 -21 39 -54 40 -17 0 -40 4 -51 9 -18 7 -17
8 10 15 59 14 65 17 65 31 0 9 -6 21 -13 29 -12 11 -17 10 -30 -6z"/>
<path d="M4187 1648 c-9 -7 -20 -27 -23 -44 -5 -27 -3 -33 15 -39 11 -3 25 -4
30 0 6 3 21 -6 34 -20 29 -32 69 -27 85 11 20 43 -2 74 -54 74 -17 0 -37 7
-44 15 -15 18 -21 19 -43 3z m43 -38 c0 -25 -25 -36 -45 -20 -20 16 -7 40 21
40 17 0 24 -6 24 -20z m75 -21 c10 -31 -9 -45 -40 -31 -22 10 -24 15 -15 32
14 26 47 26 55 -1z"/>
<path d="M634 1559 c-3 -6 0 -16 7 -21 10 -7 7 -7 -8 -3 -14 4 -23 2 -23 -4 0
-6 -17 -11 -37 -12 -29 0 -33 -2 -18 -8 19 -8 19 -8 0 -20 -17 -11 -15 -12 17
-7 30 4 40 1 48 -14 7 -13 7 -21 0 -25 -8 -5 -7 -11 1 -21 10 -12 9 -13 -5 -8
-9 3 -16 10 -16 14 0 5 -9 6 -20 3 -24 -6 -25 -22 -6 -48 14 -19 15 -19 58 1
23 12 58 27 76 34 36 14 37 17 18 43 -13 17 -52 25 -42 8 7 -11 -13 -9 -31 2
-19 12 -16 37 5 37 28 0 43 20 31 42 -11 20 -44 24 -55 7z"/>
<path d="M3317 1523 c-2 -2 -685 -14 -932 -17 -77 -1 -146 -5 -152 -9 -7 -5
-13 -4 -13 2 0 5 -12 7 -27 4 -77 -13 -141 -16 -402 -15 -169 0 -278 -4 -270
-9 9 -6 -1 -8 -31 -8 -41 1 -42 2 -15 9 28 7 29 8 4 9 -14 0 -29 -3 -35 -8
-14 -14 -73 -21 -80 -9 -3 5 -13 6 -23 2 -9 -3 -40 -8 -69 -9 -29 -1 -55 -5
-59 -8 -7 -8 38 -76 148 -218 72 -95 294 -272 391 -312 20 -8 39 -20 42 -26 4
-6 18 -11 32 -11 14 0 37 -6 52 -14 42 -21 146 -46 277 -66 95 -15 153 -18
279 -14 88 3 163 7 166 9 4 2 49 13 101 25 52 11 124 32 160 45 36 14 74 27
85 29 20 4 196 95 204 105 3 4 30 22 60 41 30 19 60 39 67 45 6 5 33 28 60 50
99 83 293 309 293 343 0 6 4 12 9 12 5 0 11 6 14 14 5 12 -21 14 -164 13 -94
-1 -171 -3 -172 -4z m261 -51 c8 -26 -307 -352 -341 -352 -5 0 -26 -12 -46
-27 -122 -93 -378 -202 -521 -222 -167 -24 -230 -29 -330 -26 -58 2 -105 4
-105 5 0 3 -42 10 -94 15 -30 3 -63 11 -74 17 -11 5 -37 10 -58 10 -21 0 -43
6 -49 14 -7 7 -16 11 -21 8 -5 -3 -9 0 -9 6 0 7 -7 10 -15 6 -18 -7 -47 3 -40
14 3 5 -3 6 -13 3 -36 -9 -222 94 -222 123 0 13 -13 19 -33 15 -5 -1 -6 3 -3
8 6 9 -22 26 -37 22 -5 -1 -6 2 -3 7 3 5 -7 15 -22 23 -23 12 -102 83 -102 93
0 2 -19 23 -42 48 -50 52 -117 132 -114 135 1 1 127 5 280 8 153 3 287 9 299
13 12 4 45 6 72 5 102 -3 335 -2 347 2 7 2 162 6 343 9 182 3 340 8 351 10 12
2 129 7 260 11 131 3 241 8 243 11 9 8 95 -4 99 -14z"/>
<path d="M4112 1498 c-7 -7 -12 -25 -12 -40 0 -22 7 -31 28 -39 15 -6 34 -15
42 -20 52 -31 60 -32 80 -14 24 21 26 67 5 85 -8 7 -26 13 -40 13 -13 0 -30 6
-36 13 -14 17 -51 18 -67 2z m56 -36 c3 -18 -1 -22 -22 -22 -19 0 -26 5 -26
18 0 39 43 43 48 4z m70 -14 c20 -20 14 -38 -12 -38 -28 0 -40 14 -32 35 7 18
28 19 44 3z"/>
<path d="M3820 1440 c-25 -26 -29 -28 -46 -15 -24 18 -34 19 -34 3 1 -13 62
-56 113 -79 35 -16 55 1 64 56 5 30 2 41 -12 51 -29 21 -55 17 -85 -16z m68
-13 c16 -19 -11 -50 -37 -42 -23 7 -27 25 -9 43 15 15 33 15 46 -1z"/>
<path d="M1048 1436 c-10 -7 -18 -20 -18 -29 0 -22 -20 -32 -32 -16 -8 11 -9
10 -4 -3 6 -20 -11 -34 -36 -30 -12 2 -15 -2 -11 -18 7 -28 18 -33 33 -15 17
21 29 19 52 -10 11 -14 26 -25 34 -25 18 0 18 -4 -3 -43 -24 -46 -23 -65 4
-98 17 -20 34 -29 54 -29 27 0 29 -3 29 -37 0 -38 36 -103 57 -103 21 0 43 12
43 24 0 6 -12 12 -27 11 -15 0 -28 5 -29 10 0 6 -4 18 -8 27 -13 28 29 78 65
78 29 0 34 -9 32 -57 -1 -7 4 -13 9 -13 5 0 0 -12 -11 -26 -31 -39 -29 -107 4
-139 27 -28 45 -31 63 -13 18 18 14 30 -6 19 -10 -5 -24 -6 -32 -1 -10 6 -7 9
11 13 22 4 22 4 2 6 -46 3 -34 71 19 105 23 14 48 -9 48 -46 0 -22 4 -29 17
-26 11 2 17 14 18 38 2 53 -11 67 -59 64 -31 -3 -36 -1 -21 6 18 8 17 9 -9 9
-20 1 -27 5 -22 16 14 37 -37 105 -79 105 -9 0 -15 9 -15 25 0 39 -26 82 -59
96 -16 7 -29 20 -28 29 1 16 -53 110 -63 110 -3 -1 -13 -7 -22 -14z m46 -81
c-8 -21 -31 -25 -45 -8 -11 13 -10 17 6 29 21 16 47 2 39 -21z m95 -113 c8
-14 5 -23 -10 -36 -12 -9 -19 -23 -16 -29 5 -13 -11 -30 -33 -35 -11 -3 -11 0
0 12 11 14 9 16 -17 16 -40 0 -45 7 -27 42 24 45 85 63 103 30z"/>
<path d="M710 1389 c-14 -11 -20 -18 -13 -15 6 4 14 2 18 -4 4 -6 -10 -9 -36
-8 -25 1 -44 -3 -47 -10 -2 -7 -10 -12 -18 -12 -17 0 -17 -5 -4 -31 13 -23 33
-25 50 -4 17 21 37 19 45 -5 7 -23 -12 -53 -30 -47 -6 3 -12 -6 -13 -19 -1
-14 4 -27 12 -30 14 -5 156 63 156 75 0 4 -9 14 -20 24 -24 20 -42 14 -34 -11
5 -14 4 -15 -5 -2 -6 8 -11 11 -11 6 0 -5 -9 -1 -20 9 -26 24 -25 29 10 46 29
13 30 15 15 37 -20 27 -23 27 -55 1z m-55 -59 c-3 -5 -12 -10 -18 -10 -7 0 -6
4 3 10 19 12 23 12 15 0z"/>
<path d="M3676 1346 c-14 -19 -26 -37 -26 -39 0 -3 23 -19 50 -37 30 -19 53
-42 56 -56 8 -31 34 -31 34 -1 0 28 -13 44 -63 81 -34 25 -37 30 -24 43 12 13
21 10 70 -21 62 -40 80 -44 75 -19 -3 15 -110 82 -134 83 -7 0 -23 -15 -38
-34z"/>
<path d="M4042 1368 c-18 -24 -24 -59 -12 -73 20 -24 32 -17 25 14 -4 21 -2
30 10 35 22 8 35 -1 35 -25 0 -17 3 -18 20 -9 30 16 64 -4 50 -30 -5 -10 -19
-20 -30 -22 -27 -4 -31 -22 -5 -25 32 -4 58 23 57 57 -1 39 -18 60 -46 60 -12
0 -31 7 -42 15 -24 18 -48 19 -62 3z"/>
<path d="M3570 1231 c-12 -23 -13 -71 -2 -87 4 -6 22 -21 40 -32 26 -15 41
-18 69 -12 62 14 71 59 22 115 -27 30 -37 35 -75 35 -33 0 -46 -5 -54 -19z
m89 -21 c44 -22 56 -43 41 -71 -15 -27 -50 -24 -90 10 -34 28 -34 28 -17 55
21 31 18 31 66 6z"/>
<path d="M3956 1235 c-17 -17 -7 -68 18 -94 39 -38 119 -42 132 -6 8 19 -3 65
-16 65 -5 0 -20 11 -34 25 -29 28 -76 33 -100 10z m121 -62 c9 -19 8 -25 -8
-33 -14 -8 -28 -5 -59 15 -63 40 -51 70 20 52 22 -6 40 -19 47 -34z"/>
<path d="M844 1181 c6 -10 -6 -14 -39 -14 -19 0 -16 -49 5 -84 19 -33 19 -33
-1 -33 -11 0 -18 4 -15 9 3 5 -1 11 -9 15 -8 3 -15 13 -15 22 0 8 -6 14 -12
11 -16 -5 -11 -37 9 -59 21 -23 61 -23 96 0 56 38 70 75 40 110 -20 22 -71 42
-59 23z m40 -47 c3 -8 2 -13 -3 -9 -5 3 -17 -2 -26 -12 -14 -13 -18 -14 -25
-2 -11 17 6 39 30 39 10 0 21 -7 24 -16z"/>
<path d="M3484 1135 c-4 -8 -10 -15 -15 -15 -6 0 -19 -8 -29 -18 -19 -18 -19
-19 34 -75 50 -54 86 -72 86 -44 0 14 -39 58 -72 81 l-22 16 21 22 22 22 50
-47 c51 -48 71 -57 71 -33 0 11 -35 44 -99 93 -22 17 -40 16 -47 -2z"/>
<path d="M3864 1105 c-16 -24 -16 -29 -1 -59 17 -37 74 -69 114 -64 30 3 45
39 32 75 -10 26 -59 61 -97 69 -25 5 -33 2 -48 -21z m99 -43 c31 -30 33 -37
11 -46 -30 -12 -101 42 -90 69 8 21 42 11 79 -23z"/>
<path d="M920 1058 c0 -4 4 -8 9 -8 6 0 12 4 15 8 3 5 -1 9 -9 9 -8 0 -15 -4
-15 -9z"/>
<path d="M933 1042 c-17 -11 1 -36 21 -29 13 5 16 1 14 -16 -6 -37 -17 -48
-45 -41 -19 5 -24 3 -21 -7 6 -18 75 -24 94 -8 19 15 18 59 -2 87 -15 22 -39
28 -61 14z"/>
<path d="M3374 1038 c-30 -14 -48 -51 -40 -83 14 -57 91 -96 124 -63 18 18 15
33 -4 17 -22 -18 -82 15 -91 49 -6 26 5 53 24 59 16 6 73 -46 85 -76 13 -33
22 -12 14 32 -10 50 -71 85 -112 65z"/>
<path d="M3769 1013 c-9 -2 -19 -16 -22 -31 -10 -49 57 -122 112 -122 23 0 51
31 51 56 0 21 -49 74 -87 93 -22 11 -27 12 -54 4z m78 -68 c29 -27 35 -37 26
-46 -9 -9 -19 -10 -35 -2 -13 6 -27 11 -33 12 -12 3 -34 40 -35 59 0 23 39 12
77 -23z"/>
<path d="M1441 973 c-7 -15 -11 -28 -9 -28 1 0 -7 -11 -19 -25 -13 -13 -23
-30 -23 -37 0 -7 -4 -13 -9 -13 -5 0 -11 -11 -13 -25 -7 -32 17 -33 67 -4 41
25 52 21 34 -13 -7 -12 -12 -29 -11 -35 2 -7 -2 -13 -8 -13 -6 0 -8 -5 -4 -11
4 -8 13 -4 26 12 33 42 78 112 78 121 0 14 -31 9 -58 -11 -15 -10 -38 -21 -52
-25 -23 -6 -23 -6 -7 7 9 8 17 19 17 26 0 6 6 22 14 34 12 18 12 26 2 45 l-12
23 -13 -28z"/>
<path d="M827 966 c3 -14 14 -33 26 -43 19 -18 20 -17 9 3 -6 12 -10 23 -8 25
2 2 -4 12 -14 22 -17 17 -17 17 -13 -7z"/>
<path d="M905 980 c-3 -6 1 -7 9 -4 18 7 21 14 7 14 -6 0 -13 -4 -16 -10z"/>
<path d="M3243 944 c-24 -14 -43 -32 -43 -40 0 -9 -11 -14 -33 -14 -39 0 -77
-31 -77 -63 0 -13 12 -42 27 -65 24 -36 32 -42 62 -42 57 0 97 63 64 100 -6 6
-23 -23 -18 -31 3 -3 -5 -15 -16 -25 -18 -17 -23 -17 -46 -4 -15 8 -30 28 -34
44 -11 41 6 59 48 53 27 -5 33 -3 31 10 -2 8 5 20 15 27 15 9 25 4 63 -36 40
-43 64 -58 64 -43 0 9 -32 58 -53 82 -19 21 -19 24 -4 41 15 17 14 32 -2 32
-3 0 -25 -12 -48 -26z"/>
<path d="M1006 915 c-14 -11 -16 -15 -5 -15 8 0 2 -11 -17 -29 -41 -39 -42
-91 -2 -105 22 -8 33 -5 62 18 45 34 70 80 61 113 -5 23 -10 25 -46 20 -22 -3
-37 -1 -33 4 7 12 2 11 -20 -6z m64 -45 c-6 -11 -8 -20 -5 -20 3 0 1 -9 -5
-20 -15 -28 -56 -53 -72 -44 -9 6 -6 10 12 15 24 7 24 7 3 8 -32 1 -29 17 9
52 39 35 75 41 58 9z"/>
<path d="M1475 910 c-3 -6 1 -7 9 -4 18 7 21 14 7 14 -6 0 -13 -4 -16 -10z"/>
<path d="M3642 898 c-20 -20 -13 -52 14 -72 l26 -18 -12 22 c-13 24 -6 55 10
45 5 -3 10 -1 10 6 0 19 69 -64 70 -83 0 -11 -7 -18 -19 -18 -11 0 -23 -4 -26
-10 -4 -6 7 -10 25 -10 22 0 33 6 39 22 9 24 3 68 -9 68 -5 0 -11 9 -15 20 -4
11 -21 24 -43 30 -47 13 -55 13 -70 -2z"/>
<path d="M1636 882 c-2 -4 -19 -9 -37 -10 -43 -3 -49 -8 -49 -40 0 -15 -11
-44 -25 -65 -22 -32 -24 -38 -10 -43 9 -4 25 2 39 15 34 32 48 27 41 -13 -8
-41 10 -58 25 -24 6 13 24 46 39 75 28 49 32 93 9 93 -5 0 -6 -5 -2 -12 4 -7
3 -8 -5 -4 -6 4 -9 11 -6 16 3 5 1 11 -4 14 -5 4 -12 3 -15 -2z m-16 -42 c19
-10 17 -38 -3 -51 -14 -10 -47 28 -41 46 7 18 18 19 44 5z"/>
<path d="M3008 825 c-6 -7 1 -177 9 -185 6 -6 23 22 18 31 -3 3 7 12 21 20 19
10 30 10 43 2 10 -6 23 -8 29 -4 8 5 -10 31 -51 75 -34 37 -65 65 -69 61z m52
-70 c18 -21 6 -45 -19 -38 -14 3 -21 14 -21 29 0 27 21 32 40 9z"/>
<path d="M1157 808 c-10 -5 -22 -6 -29 -2 -7 5 -8 3 -4 -5 5 -8 1 -14 -11 -17
-11 -3 -23 -21 -31 -44 -16 -53 -15 -77 4 -84 36 -14 63 -5 93 30 28 31 32 42
29 82 -3 48 -18 59 -51 40z m29 -39 c4 -7 -3 -19 -15 -28 -12 -9 -23 -26 -25
-36 -4 -27 -32 -43 -48 -27 -9 9 -6 12 18 12 27 1 27 2 9 12 -11 6 -22 13 -24
15 -7 6 52 63 65 63 7 0 16 -5 20 -11z"/>
<path d="M1793 763 c-6 -15 -21 -52 -34 -81 -16 -40 -19 -56 -10 -65 15 -15
24 -3 45 67 l18 58 39 -6 c34 -5 39 -4 39 13 0 11 -9 21 -22 24 -13 3 -32 8
-43 12 -15 4 -23 -1 -32 -22z"/>
<path d="M2863 769 c-18 -5 -33 -13 -33 -18 0 -8 -95 -26 -113 -22 -9 2 -2
-58 14 -121 8 -32 14 -38 37 -38 43 0 72 11 72 26 0 11 -7 13 -27 8 -16 -4
-30 -7 -33 -6 -24 0 -30 5 -30 21 0 14 10 21 35 25 48 9 44 26 -5 26 -33 0
-40 4 -40 19 0 23 12 28 64 27 38 -1 39 -2 57 -56 10 -30 19 -56 19 -57 0 -3
40 3 50 7 3 2 8 2 12 2 11 -2 29 26 34 53 4 21 0 28 -16 32 -15 4 -18 11 -14
29 7 28 -11 54 -35 53 -9 0 -31 -5 -48 -10z m60 -25 c11 -12 -13 -44 -33 -44
-22 0 -34 15 -26 35 5 15 47 21 59 9z m31 -79 c5 -15 -21 -35 -47 -35 -14 0
-27 20 -27 41 0 16 67 10 74 -6z"/>
<path d="M1918 737 c-27 -23 -48 -73 -48 -113 0 -29 43 -53 84 -49 43 5 67 40
64 95 -3 38 -7 47 -33 60 -16 8 -32 18 -35 22 -3 4 -17 -3 -32 -15z m47 -29
c48 -22 20 -108 -37 -108 -37 0 -41 65 -6 105 16 18 12 17 43 3z"/>
<path d="M1245 710 c-3 -5 -3 -10 0 -10 4 0 -3 -13 -15 -30 -12 -16 -18 -34
-15 -40 3 -5 1 -10 -5 -10 -17 0 -8 -51 11 -63 41 -26 107 33 116 103 5 36 4
39 -23 45 -16 4 -36 9 -46 11 -9 3 -19 0 -23 -6z m60 -57 c0 -16 -4 -27 -8
-25 -12 4 -39 -27 -33 -37 3 -5 -3 -11 -14 -14 -21 -5 -37 8 -21 18 6 3 8 11
5 18 -5 14 41 67 60 67 8 0 12 -11 11 -27z"/>
<path d="M2062 706 c-17 -21 -43 -149 -32 -160 6 -6 11 -3 15 10 11 34 22 49
36 50 8 0 29 4 47 8 28 7 32 11 32 42 0 19 -6 36 -12 38 -7 2 -27 8 -45 13
-23 8 -35 8 -41 -1z m78 -57 c0 -7 -35 -19 -57 -19 -22 0 -14 40 10 49 16 7
25 5 35 -7 6 -9 12 -19 12 -23z"/>
<path d="M3393 705 c-16 -17 -17 -41 -3 -50 6 -3 10 -1 10 5 0 14 25 40 39 40
6 0 11 5 11 10 0 15 -43 11 -57 -5z"/>
<path d="M2572 694 c-25 -17 -30 -66 -11 -107 28 -62 129 -63 129 -2 0 30 -16
33 -23 5 -12 -45 -63 -36 -80 14 -14 41 -1 76 28 76 13 0 27 -4 30 -10 10 -17
25 -11 25 9 0 33 -59 42 -98 15z"/>
<path d="M2194 659 c-20 -32 -24 -49 -20 -74 14 -72 83 -86 124 -25 43 64 18
140 -47 140 -25 0 -35 -7 -57 -41z m89 -7 c23 -20 22 -57 -3 -82 -23 -23 -33
-24 -61 -10 -12 7 -19 21 -19 40 0 61 41 86 83 52z"/>
<path d="M2372 686 c-3 -6 -7 -35 -7 -65 -1 -39 -6 -56 -18 -63 -10 -5 -17
-21 -17 -38 0 -35 10 -38 28 -10 16 27 99 29 109 3 6 -15 7 -14 14 3 4 11 1
26 -8 36 -11 12 -14 34 -11 80 l3 63 -43 1 c-23 1 -46 -4 -50 -10z m66 -70 c3
-51 -6 -66 -41 -66 -14 0 -17 6 -13 28 2 15 5 42 5 60 1 29 4 33 24 30 19 -3
22 -10 25 -52z"/>
<path d="M4240 681 c0 -17 18 -21 24 -6 3 9 0 15 -9 15 -8 0 -15 -4 -15 -9z"/>
<path d="M3257 619 c-14 -20 -12 -59 3 -59 4 0 10 9 13 20 6 23 52 28 60 8 3
-10 8 -10 17 -2 9 9 9 16 -2 33 -17 28 -71 29 -91 0z"/>
<path d="M1416 619 c3 -5 -2 -9 -10 -9 -17 0 -22 -16 -7 -22 6 -1 -1 -25 -15
-53 -47 -97 -26 -102 33 -8 42 68 45 94 9 99 -9 1 -14 -2 -10 -7z"/>
<path d="M3400 620 c0 -5 5 -10 10 -10 6 0 10 5 10 10 0 6 -4 10 -10 10 -5 0
-10 -4 -10 -10z"/>
<path d="M3700 605 c0 -29 15 -33 29 -6 11 20 5 31 -16 31 -7 0 -13 -11 -13
-25z"/>
<path d="M3142 570 c-27 -11 -35 -28 -30 -67 l3 -28 18 33 c19 34 37 40 56 18
8 -10 6 -19 -9 -39 -23 -30 -34 -76 -22 -95 10 -15 53 -2 78 22 21 21 18 24
-21 19 -39 -4 -41 -2 -21 30 26 41 28 75 6 97 -22 22 -25 23 -58 10z"/>
<path d="M3324 552 c-17 -10 -26 -49 -19 -73 9 -29 22 -13 30 39 7 44 7 46
-11 34z"/>
<path d="M1538 542 c-19 -4 -25 -22 -8 -22 14 0 12 -23 -5 -56 -18 -35 -19
-54 -2 -53 12 0 67 103 67 124 0 11 -20 13 -52 7z"/>
<path d="M1671 516 c-8 -10 -33 -70 -48 -119 -3 -10 2 -26 12 -37 30 -33 87
-8 91 40 1 8 6 27 12 41 18 45 2 75 -45 85 -7 1 -16 -3 -22 -10z m49 -51 c0
-16 -35 -21 -44 -6 -8 12 4 21 26 21 10 0 18 -7 18 -15z m-26 -61 c8 -20 5
-23 -22 -29 -29 -5 -39 15 -17 32 24 17 32 17 39 -3z"/>
<path d="M2998 489 c-23 -25 -23 -32 4 -44 13 -6 26 -26 33 -50 6 -23 18 -41
27 -43 15 -3 14 6 -9 70 -14 40 -28 76 -32 79 -3 3 -14 -2 -23 -12z"/>
<path d="M1816 451 c-27 -29 -15 -46 14 -21 29 25 45 21 45 -11 0 -19 -11 -29
-50 -49 -69 -35 -69 -53 -1 -72 44 -12 53 -12 49 -1 -3 7 -16 16 -29 19 -31 8
-31 30 1 38 33 8 65 41 65 65 0 47 -62 67 -94 32z"/>
<path d="M2842 425 c3 -30 0 -36 -23 -46 -34 -14 -46 -7 -54 31 -6 27 -23 39
-37 25 -3 -3 3 -22 13 -43 11 -20 19 -53 19 -74 0 -26 5 -41 15 -45 24 -8 29
3 17 37 -10 28 -9 32 13 40 33 12 52 4 59 -26 4 -13 11 -24 17 -24 13 0 5 75
-14 128 -15 42 -30 41 -25 -3z"/>
<path d="M2006 408 c-9 -12 -16 -19 -16 -15 0 4 -14 -8 -31 -27 -32 -37 -33
-76 -3 -76 8 0 12 5 9 10 -3 6 -2 10 4 10 10 0 37 -41 32 -50 -1 -2 2 -6 7 -8
6 -2 13 6 17 17 3 12 11 21 16 21 12 0 12 27 -1 32 -6 2 -6 16 1 41 17 62 -4
89 -35 45z m7 -52 c7 -18 -1 -26 -25 -26 -16 0 -16 3 -6 20 15 24 24 25 31 6z"/>
<path d="M2435 402 c-14 -10 -7 -174 7 -170 6 2 11 36 12 78 1 69 3 75 21 73
11 -1 27 0 35 3 13 4 13 6 0 14 -18 12 -61 13 -75 2z"/>
<path d="M2577 402 c-3 -4 -2 -26 3 -48 5 -21 10 -56 10 -77 0 -27 4 -37 13
-34 6 2 11 15 9 29 -2 20 4 27 29 34 39 11 68 57 53 82 -12 18 -108 30 -117
14z m96 -33 c4 -15 -1 -23 -21 -30 -35 -13 -52 -5 -52 26 0 22 4 25 34 25 26
0 35 -5 39 -21z"/>
<path d="M2247 382 c-60 -66 -15 -170 68 -154 47 9 72 103 39 150 -19 28 -83
31 -107 4z m90 -38 c16 -32 16 -38 2 -62 -19 -35 -51 -39 -79 -10 -23 25 -21
60 7 91 26 28 51 21 70 -19z"/>
</g>
</svg>
